# xmcd
#
# Track frame offsets: 
#        150
#        15977
#        32341
#        48168
#        63995
#        79822
#
# Disc length: 1265 seconds
#
# Revision: 0
# Processed by: cddbd v1.5.2PL0 Copyright (c) Steve Scherf et al.
# Submitted via: ExactAudioCopyFreeDBPlugin 1.0
#
DISCID=3704ef06
DTITLE=NessaCary - Fiyah
DYEAR=2015
DGENRE=Hip-Hop
TTITLE0=Fiyah
TTITLE1=Fiyah - Radio
TTITLE2=Fiyah - Clean
TTITLE3=Fiyah - TV
TTITLE4=Fiyah - Instrumental
TTITLE5=Fiyah - Acapella
EXTD=
EXTT0=
EXTT1=
EXTT2=
EXTT3=
EXTT4=
EXTT5=
PLAYORDER=
